<svg width="200" height="200" viewBox="0 0 200 200" xmlns="http://www.w3.org/2000/svg">
  <defs>
    <linearGradient id="mainGradient" x1="0%" y1="0%" x2="100%" y2="100%">
      <stop offset="0%" style="stop-color:#00ff88;stop-opacity:1" />
      <stop offset="50%" style="stop-color:#00cc66;stop-opacity:1" />
      <stop offset="100%" style="stop-color:#009944;stop-opacity:1" />
    </linearGradient>
    <linearGradient id="circuitGradient" x1="0%" y1="0%" x2="100%" y2="100%">
      <stop offset="0%" style="stop-color:#00ff88;stop-opacity:0.8" />
      <stop offset="100%" style="stop-color:#00cc66;stop-opacity:0.4" />
    </linearGradient>
    <filter id="glow">
      <feGaussianBlur stdDeviation="3" result="coloredBlur"/>
      <feMerge>
        <feMergeNode in="coloredBlur"/>
        <feMergeNode in="SourceGraphic"/>
      </feMerge>
    </filter>
  </defs>
  
  <!-- Background circle -->
  <circle cx="100" cy="100" r="95" fill="#1a1a1a" stroke="url(#mainGradient)" stroke-width="2" opacity="0.1"/>
  
  <!-- Main V structure -->
  <g transform="translate(100, 100)">
    <!-- Left V arm with circuit pattern -->
    <path d="M -60,-40 L -30,-40 L 0,40 L -20,40 Z" fill="url(#mainGradient)" filter="url(#glow)"/>
    <path d="M -50,-35 L -50,-20 M -45,-30 L -35,-30 M -40,-25 L -40,-15" 
          stroke="#00ff88" stroke-width="2" stroke-linecap="round" opacity="0.6"/>
    
    <!-- Center V -->
    <path d="M -20,-40 L 10,-40 L 30,20 L 20,40 L 0,40 L -10,15 Z" fill="url(#mainGradient)" filter="url(#glow)"/>
    
    <!-- Right V arm with circuit pattern -->
    <path d="M 30,-40 L 60,-40 L 40,40 L 20,40 Z" fill="url(#mainGradient)" filter="url(#glow)"/>
    <path d="M 50,-35 L 50,-20 M 45,-30 L 35,-30 M 40,-25 L 40,-15" 
          stroke="#00ff88" stroke-width="2" stroke-linecap="round" opacity="0.6"/>
    
    <!-- Circuit nodes -->
    <circle cx="-45" cy="-25" r="4" fill="#00ff88" filter="url(#glow)"/>
    <circle cx="45" cy="-25" r="4" fill="#00ff88" filter="url(#glow)"/>
    <circle cx="0" cy="-35" r="5" fill="#00ff88" filter="url(#glow)"/>
    
    <!-- Connection lines -->
    <path d="M -45,-25 L -20,-10 M 45,-25 L 20,-10 M 0,-35 L 0,-20" 
          stroke="url(#circuitGradient)" stroke-width="1.5" stroke-linecap="round"/>
    
    <!-- Central hexagon accent -->
    <path d="M 0,-15 L 10,-8 L 10,5 L 0,12 L -10,5 L -10,-8 Z" 
          fill="none" stroke="#00ff88" stroke-width="2" opacity="0.4"/>
    
    <!-- Tech dots pattern -->
    <g opacity="0.3">
      <circle cx="-30" cy="20" r="2" fill="#00ff88"/>
      <circle cx="30" cy="20" r="2" fill="#00ff88"/>
      <circle cx="0" cy="30" r="2" fill="#00ff88"/>
      <circle cx="-15" cy="25" r="1.5" fill="#00ff88"/>
      <circle cx="15" cy="25" r="1.5" fill="#00ff88"/>
    </g>
  </g>
  
  <!-- Outer tech ring -->
  <g transform="translate(100, 100)" opacity="0.2">
    <path d="M 0,-90 A 90,90 0 0,1 63.6,-63.6" fill="none" stroke="#00ff88" stroke-width="1" stroke-dasharray="5,5"/>
    <path d="M -63.6,63.6 A 90,90 0 0,1 0,90" fill="none" stroke="#00ff88" stroke-width="1" stroke-dasharray="5,5"/>
  </g>
</svg>